<svg xmlns="http://www.w3.org/2000/svg" width="128" height="128" xml:space="preserve"><path fill="#282D33" d="M121.023 126.777H56.08V74.441H23.014v52.336H6.982V58.77h4.006v64.002h8.02V70.437h41.077v52.335h56.934V58.77h4.004zM23.014 32.788h-4.006V8.131H38.2v8.62h-4.005v-4.614H23.014z"/><path fill="#282D33" d="M101.978 73.512V99.61H72.349V73.512h29.629m3.932-3.93H68.419v33.959h37.489V69.582h.002zM125.168 68.055 64 6.888 2.832 68.055 0 65.223l64-64 64 64zM41.303 100.964h7.633v4.005h-7.633z"/><path fill="#282D33" d="M65.736 98.331h42.853v4.006H65.736z"/></svg>