<svg xmlns="http://www.w3.org/2000/svg" viewBox="0 0 64 64"><path d="M57 5H7a1 1 0 0 0-1 1v28a1 1 0 0 0 1 1h50a1 1 0 0 0 1-1V6a1 1 0 0 0-1-1zm-1 28H8V7h48z" style="fill:#1b1a1e"/><path d="M57 1H7a5.006 5.006 0 0 0-5 5v36a5.006 5.006 0 0 0 5 5h17v4H14a1 1 0 0 0-.894.553l-5 10A1 1 0 0 0 9 63h46a1 1 0 0 0 .894-1.447l-5-10A1 1 0 0 0 50 51H40v-4h17a5.006 5.006 0 0 0 5-5V6a5.006 5.006 0 0 0-5-5zM4 6a3.003 3.003 0 0 1 3-3h50a3.003 3.003 0 0 1 3 3v31H4zm34 46a6.007 6.007 0 0 0 6 6 1 1 0 0 0 0-2 3.996 3.996 0 0 1-3.858-3h9.24l4 8H10.618l4-8h9.24A3.996 3.996 0 0 1 20 56a1 1 0 0 0 0 2 6.007 6.007 0 0 0 6-6v-5h12zm22-10a3.003 3.003 0 0 1-3 3H7a3.003 3.003 0 0 1-3-3v-3h56z" style="fill:#1b1a1e"/><path d="M7 43h6a1 1 0 0 0 0-2H7a1 1 0 0 0 0 2zM16 43h2a1 1 0 0 0 0-2h-2a1 1 0 0 0 0 2z" style="fill:#1b1a1e"/></svg>